<?xml version="1.0" encoding="UTF-8"?>
<svg width="1200pt" height="1200pt" version="1.1" viewBox="0 0 1200 1200" xmlns="http://www.w3.org/2000/svg">
 <path d="m600 0c-242.62 0-440 188.42-440 420 1.4453 127.36 12.242 254.44 32.301 380.22 5.3086 31.555 18.016 61.402 37.078 87.102 80.57 106.77 173.03 204.03 275.58 289.9 17.922 14.785 40.445 22.844 63.68 22.781h62.719c23.234 0.0625 45.758-7.9961 63.68-22.781 102.55-85.871 195.01-183.13 275.58-289.9 19.059-25.691 31.766-55.535 37.078-87.082 20.059-125.79 30.855-252.87 32.301-380.24 0-231.58-197.38-420-440-420zm208.46 96.301c-4.9062 33.895-12.551 67.34-22.859 100-0.55469 2.6523-2.8906 4.5547-5.6016 4.5547s-5.0469-1.9023-5.6016-4.5547c-13.004-42.16-22.047-85.441-27.02-129.28 21.141 8.0469 41.57 17.84 61.082 29.281zm-208.46-56.301c12.719 0 25.262 0.69922 37.68 1.8203-3.3242 65.879-14.223 131.16-32.48 194.54-0.79297 2.1602-2.8438 3.6055-5.1445 3.625-2.3008 0.023437-4.3789-1.3789-5.2148-3.5234-18.281-63.418-29.191-128.73-32.52-194.64 12.418-1.1211 24.961-1.8203 37.68-1.8203zm-147.38 27.059c-4.9727 43.848-14.02 87.133-27.02 129.3-0.55469 2.6523-2.8906 4.5547-5.6016 4.5547s-5.0469-1.9023-5.6016-4.5547c-10.312-32.66-17.957-66.102-22.859-100 19.512-11.445 39.941-21.246 61.082-29.301zm515.66 726.44c-4.1719 25.316-14.348 49.266-29.68 69.84-78.688 104.28-168.98 199.27-269.14 283.14-10.711 8.7852-24.148 13.562-38 13.52h-62.82c-13.852 0.042969-27.289-4.7344-38-13.52-100.2-83.863-190.52-178.85-269.24-283.14-15.336-20.578-25.512-44.535-29.68-69.859-19.688-123.55-30.289-248.38-31.719-373.48 0.45312-58.598 14.711-116.26 41.617-168.32 26.906-52.059 65.703-97.039 113.24-131.3 5.0703 29.953 12.262 59.508 21.52 88.441 4.1758 12.207 13.273 22.105 25.086 27.293s25.258 5.1875 37.07 0 20.91-15.086 25.086-27.293c15.48-50.422 25.738-102.3 30.617-154.82 9.3594-2.4414 18.738-4.8398 28.34-6.6406 3.6758 68.242 15.156 135.84 34.223 201.46 4.0312 12.199 13.031 22.125 24.773 27.328 11.746 5.207 25.145 5.207 36.891 0 11.746-5.2031 20.742-15.129 24.773-27.328 19.055-65.656 30.523-133.28 34.184-201.54 9.6016 1.8008 18.98 4.1992 28.34 6.6406 4.8672 52.543 15.129 104.45 30.617 154.9 4.1758 12.207 13.273 22.105 25.086 27.293s25.258 5.1875 37.07 0 20.91-15.086 25.086-27.293c9.2539-28.941 16.445-58.504 21.52-88.461 47.543 34.262 86.344 79.246 113.25 131.31 26.902 52.062 41.16 109.73 41.609 168.33-1.4297 125.11-12.031 249.94-31.719 373.5z"/>
 <path d="m865.16 261.26c-8.6992 2.2227-16.324 7.4648-21.512 14.793-5.1875 7.3281-7.6016 16.262-6.8086 25.207 1.3867 18.102 1.2812 36.293-0.32031 54.379-6.0078-7.0547-12.883-13.324-20.461-18.66-10.285-7.5625-23.719-9.3438-35.617-4.7188-12.418 4.8594-21.477 15.746-24 28.84-6.4727 46.395-29.305 88.949-64.383 120-14.555 11.539-26.684 25.848-35.68 42.098-14.945-14.883-35.184-23.242-56.277-23.242-21.098 0-41.332 8.3594-56.281 23.242-9.043-16.25-21.219-30.543-35.82-42.059-35.129-31.121-57.977-73.773-64.422-120.26-2.5547-13.039-11.613-23.863-24-28.68-11.773-4.6328-25.098-2.9336-35.34 4.5-7.6797 5.4141-14.648 11.781-20.738 18.941-1.5977-18.055-1.7109-36.207-0.33984-54.281 0.97266-12.031-3.7852-23.816-12.84-31.797-9.0547-7.9844-21.34-11.23-33.156-8.7578-11.812 2.4727-21.77 10.371-26.863 21.316-30.938 61.523-48.102 129.05-50.301 197.88-0.17578 60.523 14.668 120.14 43.199 173.52 11.082 20.25 27.438 37.117 47.332 48.824 19.895 11.703 42.586 17.805 65.668 17.656h76.723c-8.2773 10.789-12.812 23.98-12.922 37.578 0.070312 9.9062 2.5273 19.648 7.1602 28.402-19.559 6.7773-36.527 19.465-48.559 36.309s-18.531 37.012-18.602 57.711v40c0.03125 26.512 10.578 51.93 29.324 70.676 18.746 18.746 44.164 29.293 70.676 29.324h200c26.512-0.03125 51.93-10.578 70.676-29.324 18.746-18.746 29.293-44.164 29.324-70.676v-40c-0.074219-20.695-6.5742-40.859-18.605-57.699-12.031-16.84-29-29.523-48.555-36.301 4.6367-8.7578 7.0938-18.508 7.1602-28.422-0.10938-13.598-4.6445-26.789-12.922-37.578h76.723c23.082 0.14844 45.773-5.9531 65.668-17.656 19.895-11.707 36.25-28.574 47.332-48.824 28.531-53.375 43.375-113 43.199-173.52-2.1836-68.871-19.355-136.44-50.32-198-3.7656-8.1641-10.309-14.73-18.457-18.527-8.1523-3.8008-17.387-4.582-26.062-2.2109zm-305.16 390.4v-71.66c0-14.289 7.625-27.496 20-34.641s27.625-7.1445 40 0 20 20.352 20 34.641v71.66c-0.035156 23.477 9.3281 45.992 26 62.52l27.539 27.539c4.2188 4.2148 6.582 9.9336 6.5742 15.895-0.007812 5.957-2.3906 11.672-6.6172 15.871-4.2305 4.2031-9.957 6.5469-15.918 6.5156h-155.16c-5.9492 0.003906-11.656-2.3555-15.863-6.5625-4.207-4.207-6.5742-9.9102-6.5703-15.859 0-5.9492 2.3633-11.652 6.5703-15.859l27.539-27.539h0.003906c16.637-16.543 25.961-39.059 25.898-62.52zm-163.8 28.34c-15.863 0.13281-31.473-4.0234-45.168-12.035-13.695-8.0078-24.969-19.57-32.633-33.465-25.395-47.527-38.586-100.61-38.398-154.5 1.9531-59.902 16.508-118.72 42.719-172.62-4.1797 83.578 18 119.7 20.602 123.68 3.1836 4.8164 8.2969 8.0195 14.016 8.7891 5.7227 0.76953 11.496-0.97266 15.84-4.7773 4.3438-3.8047 6.832-9.2969 6.8242-15.07-0.17578-19.355 9.1055-37.578 24.859-48.82 8.2461 54.984 36.047 105.14 78.301 141.28 22.711 17.195 36.289 43.855 36.84 72.34v66.859c-0.023438 10.199-3.293 20.125-9.3398 28.34zm363.8 200v40c0 15.914-6.3203 31.176-17.574 42.426-11.25 11.254-26.512 17.574-42.426 17.574h-200c-15.914 0-31.176-6.3203-42.426-17.574-11.254-11.25-17.574-26.512-17.574-42.426v-40c0-15.914 6.3203-31.176 17.574-42.426 11.25-11.254 26.512-17.574 42.426-17.574h200c15.914 0 31.176 6.3203 42.426 17.574 11.254 11.25 17.574 26.512 17.574 42.426zm160-400c0.1875 53.887-13.004 106.97-38.398 154.5-7.6641 13.895-18.938 25.457-32.633 33.465-13.695 8.0117-29.305 12.168-45.168 12.035h-114.46c-6.0469-8.2148-9.3164-18.141-9.3398-28.34v-66.859c0.55078-28.484 14.129-55.145 36.84-72.34 42.383-36.117 70.062-86.516 77.801-141.66 16.051 11.211 25.543 29.621 25.359 49.199-0.007812 5.7734 2.4805 11.266 6.8242 15.07 4.3438 3.8047 10.117 5.5469 15.84 4.7773 5.7188-0.76953 10.832-3.9727 14.016-8.7891 2.6211-4 24.719-40 20.602-123.72 26.215 53.91 40.77 112.74 42.719 172.66z"/>
 <path d="m410 520c-17.211-1.1992-34.203 4.4219-47.301 15.648-13.102 11.227-21.254 27.16-22.699 44.352 1.4453 17.191 9.5977 33.125 22.699 44.352 13.098 11.227 30.09 16.848 47.301 15.648 17.211 1.1992 34.203-4.4219 47.301-15.648 13.102-11.227 21.254-27.16 22.699-44.352-1.4453-17.191-9.5977-33.125-22.699-44.352-13.098-11.227-30.09-16.848-47.301-15.648zm0 80c-16 0-30-9.3594-30-20s14-20 30-20 30 9.3594 30 20-14 20-30 20z"/>
 <path d="m790 520c-17.211-1.1992-34.203 4.4219-47.301 15.648-13.102 11.227-21.254 27.16-22.699 44.352 1.4453 17.191 9.5977 33.125 22.699 44.352 13.098 11.227 30.09 16.848 47.301 15.648 17.211 1.1992 34.203-4.4219 47.301-15.648 13.102-11.227 21.254-27.16 22.699-44.352-1.4453-17.191-9.5977-33.125-22.699-44.352-13.098-11.227-30.09-16.848-47.301-15.648zm0 80c-16 0-30-9.3594-30-20s14-20 30-20 30 9.3594 30 20-14 20-30 20z"/>
 <path d="m680 880h-160c-7.1445 0-13.746 3.8125-17.32 10-3.5742 6.1875-3.5742 13.812 0 20 3.5742 6.1875 10.176 10 17.32 10h160c7.1445 0 13.746-3.8125 17.32-10 3.5742-6.1875 3.5742-13.812 0-20-3.5742-6.1875-10.176-10-17.32-10z"/>
</svg>
